<svg xmlns="http://www.w3.org/2000/svg" viewBox="0 0 296.48 152.4"><defs><style>.cls-1{fill:#231f20;}</style></defs><title>Asset 1</title><g id="Layer_2" data-name="Layer 2"><g id="Layer_1-2" data-name="Layer 1"><polygon class="cls-1" points="133.67 43.26 143.13 43.26 145.85 35.01 136.62 35.01 133.67 43.26"/><path class="cls-1" d="M159.35,0H149.12L138.53,29.67h31.31Zm-5.22,9.89,5.47,17H148.52Z"/><polygon class="cls-1" points="164.85 43.26 174.65 43.26 171.73 35.01 162.22 35.01 164.85 43.26"/><path class="cls-1" d="M126.86,36.82a4.48,4.48,0,1,1,4.48-4.48A4.49,4.49,0,0,1,126.86,36.82Z"/><path d="M58.93,92.07a4.85,4.85,0,0,0-3.45-1.16,5.55,5.55,0,0,0-2.78.67,6.13,6.13,0,0,0-2,1.76,7.92,7.92,0,0,0-1.19,2.48,10,10,0,0,0,0,5.67A8,8,0,0,0,50.71,104a6.24,6.24,0,0,0,2,1.76,5.66,5.66,0,0,0,2.78.66,4.9,4.9,0,0,0,1.94-.38A5.18,5.18,0,0,0,59,104.93a5.75,5.75,0,0,0,1.17-1.63,6.22,6.22,0,0,0,.56-2.08H63a8.42,8.42,0,0,1-2.43,5.16,7.14,7.14,0,0,1-5.07,1.84,8.61,8.61,0,0,1-3.68-.75,8,8,0,0,1-2.69-2.06,8.85,8.85,0,0,1-1.65-3,12.39,12.39,0,0,1,0-7.43,8.85,8.85,0,0,1,1.65-3,8.14,8.14,0,0,1,2.69-2.08,8.47,8.47,0,0,1,3.68-.77,7.87,7.87,0,0,1,4.94,1.54,6.61,6.61,0,0,1,2.41,4.69H60.62A6.2,6.2,0,0,0,58.93,92.07Z"/><path d="M78.3,89.82A8,8,0,0,1,81,91.9a9,9,0,0,1,1.66,3,12.6,12.6,0,0,1,0,7.43,9,9,0,0,1-1.66,3,7.86,7.86,0,0,1-2.69,2.06,9.38,9.38,0,0,1-7.35,0,7.9,7.9,0,0,1-2.7-2.06,9,9,0,0,1-1.65-3,12.6,12.6,0,0,1,0-7.43,9,9,0,0,1,1.65-3A8.08,8.08,0,0,1,71,89.82a9.15,9.15,0,0,1,7.35,0Zm-6.46,1.76a6.13,6.13,0,0,0-2,1.76,8.14,8.14,0,0,0-1.19,2.48,10,10,0,0,0,0,5.67A8.26,8.26,0,0,0,69.85,104a6.24,6.24,0,0,0,2,1.76,6.18,6.18,0,0,0,5.56,0,6.24,6.24,0,0,0,2-1.76,8,8,0,0,0,1.2-2.48,10.25,10.25,0,0,0,0-5.67,7.94,7.94,0,0,0-1.2-2.48,6.13,6.13,0,0,0-2-1.76,6.1,6.1,0,0,0-5.56,0Z"/><path d="M89.44,89.58v3.06h.1A6.94,6.94,0,0,1,91.85,90a6.38,6.38,0,0,1,3.64-1,6.12,6.12,0,0,1,3.25.88,4.27,4.27,0,0,1,2,2.67,5.49,5.49,0,0,1,2.39-2.67,6.82,6.82,0,0,1,3.38-.88q6,0,6,6.37v12.31h-2.21V95.52a5.39,5.39,0,0,0-1-3.43A4.09,4.09,0,0,0,106,90.91a4.7,4.7,0,0,0-2.39.55,4.15,4.15,0,0,0-1.51,1.46,6.09,6.09,0,0,0-.79,2.09,12.27,12.27,0,0,0-.23,2.45v10.27H98.83V95.42a7.69,7.69,0,0,0-.19-1.75A3.94,3.94,0,0,0,98,92.23a3,3,0,0,0-1.17-1,4.28,4.28,0,0,0-1.8-.35,5.45,5.45,0,0,0-2.44.51,4.4,4.4,0,0,0-1.69,1.41,6.11,6.11,0,0,0-1,2.11,10.6,10.6,0,0,0-.32,2.66v10.13H87.4V89.58Z"/><path d="M119.84,82.61v3.55h-2.22V82.61Zm0,7v18.15h-2.22V89.58Z"/><path d="M127.16,89.58v3.13h.07a5.28,5.28,0,0,1,2.25-2.66,6.59,6.59,0,0,1,3.55-1,9,9,0,0,1,3.19.49,5,5,0,0,1,2.06,1.39,5.24,5.24,0,0,1,1.09,2.2,12.43,12.43,0,0,1,.32,2.92v11.68h-2.22V96.4a10.55,10.55,0,0,0-.21-2.16,4.56,4.56,0,0,0-.74-1.74,3.6,3.6,0,0,0-1.43-1.17,5.25,5.25,0,0,0-2.23-.42,5.65,5.65,0,0,0-2.38.48,5.08,5.08,0,0,0-1.76,1.3,6,6,0,0,0-1.12,2,7.91,7.91,0,0,0-.44,2.48v10.59h-2.22V89.58Z"/><path d="M159.65,109.88a6.9,6.9,0,0,1-1.39,2.74,6.06,6.06,0,0,1-2.48,1.73,10.29,10.29,0,0,1-3.74.6,11.36,11.36,0,0,1-2.68-.32,7.44,7.44,0,0,1-2.34-1,5.69,5.69,0,0,1-1.72-1.7,5.2,5.2,0,0,1-.8-2.48h2.22a3.91,3.91,0,0,0,.69,1.7,4.07,4.07,0,0,0,1.23,1.11,5.5,5.5,0,0,0,1.6.62,9,9,0,0,0,1.8.19,5.31,5.31,0,0,0,4.46-1.76,8.06,8.06,0,0,0,1.38-5.07v-2.46h-.07a6.54,6.54,0,0,1-2.27,2.71,6.08,6.08,0,0,1-3.5,1,8.77,8.77,0,0,1-3.73-.72,6.85,6.85,0,0,1-2.56-2,8.26,8.26,0,0,1-1.46-3,14.24,14.24,0,0,1-.45-3.64,11.41,11.41,0,0,1,.54-3.54A8.77,8.77,0,0,1,146,91.74a7.36,7.36,0,0,1,2.56-2,8.15,8.15,0,0,1,3.51-.72,6.26,6.26,0,0,1,1.91.28,6.07,6.07,0,0,1,1.64.79,7.06,7.06,0,0,1,1.32,1.18,5.25,5.25,0,0,1,.9,1.41h.07V89.58h2.21v16.67A13.58,13.58,0,0,1,159.65,109.88ZM154.57,105a5.69,5.69,0,0,0,1.83-1.62,7.33,7.33,0,0,0,1.11-2.3,10,10,0,0,0,.37-2.68,11.6,11.6,0,0,0-.32-2.67,7.73,7.73,0,0,0-1-2.43,5.53,5.53,0,0,0-1.81-1.76,5.09,5.09,0,0,0-2.69-.67,5.36,5.36,0,0,0-2.71.65,5.79,5.79,0,0,0-1.87,1.71,7.13,7.13,0,0,0-1.07,2.41,11.1,11.1,0,0,0-.34,2.76,10,10,0,0,0,.36,2.68,6.7,6.7,0,0,0,1.09,2.3,5.6,5.6,0,0,0,1.86,1.62,5.5,5.5,0,0,0,2.68.62A5.07,5.07,0,0,0,154.57,105Z"/><path d="M186.31,93.11a3.73,3.73,0,0,0-1-1.25,4.18,4.18,0,0,0-1.5-.72,6.91,6.91,0,0,0-1.79-.23,7.09,7.09,0,0,0-1.5.16,4.6,4.6,0,0,0-1.38.53,2.91,2.91,0,0,0-1,1,2.7,2.7,0,0,0-.38,1.47,2,2,0,0,0,.37,1.25,3.24,3.24,0,0,0,.93.87,6.34,6.34,0,0,0,1.23.58q.67.23,1.23.36l3,.67a9.21,9.21,0,0,1,1.88.51,6.13,6.13,0,0,1,1.65,1,4.52,4.52,0,0,1,1.18,1.48,4.39,4.39,0,0,1,.46,2.07,4.51,4.51,0,0,1-.67,2.52,5.38,5.38,0,0,1-1.7,1.69,7.54,7.54,0,0,1-2.34.93,12,12,0,0,1-2.57.28,8.31,8.31,0,0,1-5.19-1.51,6.4,6.4,0,0,1-2.27-4.85h2.21a4.38,4.38,0,0,0,1.64,3.39,6,6,0,0,0,3.71,1.14,8.09,8.09,0,0,0,1.67-.17,5.57,5.57,0,0,0,1.61-.6,3.91,3.91,0,0,0,1.21-1.07,3,3,0,0,0,.14-3,2.79,2.79,0,0,0-.9-.91,5.64,5.64,0,0,0-1.28-.62c-.48-.16-1-.3-1.46-.42L180.54,99a14.37,14.37,0,0,1-2-.65,6.36,6.36,0,0,1-1.6-.91,3.79,3.79,0,0,1-1.07-1.34,4.92,4.92,0,0,1,.23-4.31,4.74,4.74,0,0,1,1.6-1.58,7.4,7.4,0,0,1,2.2-.88,10.49,10.49,0,0,1,2.41-.28,8.73,8.73,0,0,1,2.55.35,5.78,5.78,0,0,1,2.07,1.09,5.28,5.28,0,0,1,1.43,1.83,6.66,6.66,0,0,1,.6,2.57h-2.22A4.13,4.13,0,0,0,186.31,93.11Z"/><path d="M205,89.82a7.94,7.94,0,0,1,2.69,2.08,9,9,0,0,1,1.66,3,12.6,12.6,0,0,1,0,7.43,9,9,0,0,1-1.66,3,7.77,7.77,0,0,1-2.69,2.06,9.38,9.38,0,0,1-7.35,0,7.9,7.9,0,0,1-2.7-2.06,9.2,9.2,0,0,1-1.65-3,12.6,12.6,0,0,1,0-7.43,9.2,9.2,0,0,1,1.65-3,8.08,8.08,0,0,1,2.7-2.08,9.15,9.15,0,0,1,7.35,0Zm-6.46,1.76a6.09,6.09,0,0,0-2,1.76,7.94,7.94,0,0,0-1.2,2.48,10,10,0,0,0,0,5.67,8,8,0,0,0,1.2,2.48,6.21,6.21,0,0,0,2,1.76,6.18,6.18,0,0,0,5.56,0,6.24,6.24,0,0,0,2-1.76,8,8,0,0,0,1.2-2.48,10.25,10.25,0,0,0,0-5.67,7.94,7.94,0,0,0-1.2-2.48,6.13,6.13,0,0,0-2-1.76,6.1,6.1,0,0,0-5.56,0Z"/><path d="M225.45,89.82a8.08,8.08,0,0,1,2.7,2.08,9.2,9.2,0,0,1,1.65,3,12.6,12.6,0,0,1,0,7.43,9.2,9.2,0,0,1-1.65,3,7.9,7.9,0,0,1-2.7,2.06,9.38,9.38,0,0,1-7.35,0,7.77,7.77,0,0,1-2.69-2.06,9,9,0,0,1-1.66-3,12.6,12.6,0,0,1,0-7.43,9,9,0,0,1,1.66-3,7.94,7.94,0,0,1,2.69-2.08,9.15,9.15,0,0,1,7.35,0ZM219,91.58a6.13,6.13,0,0,0-2,1.76,7.94,7.94,0,0,0-1.2,2.48,10.25,10.25,0,0,0,0,5.67A8,8,0,0,0,217,104a6.24,6.24,0,0,0,2,1.76,6.18,6.18,0,0,0,5.56,0,6.21,6.21,0,0,0,2-1.76,8,8,0,0,0,1.2-2.48,10,10,0,0,0,0-5.67,7.94,7.94,0,0,0-1.2-2.48,6.09,6.09,0,0,0-2-1.76,6.1,6.1,0,0,0-5.56,0Z"/><path d="M236.73,89.58v3.13h.07a5.33,5.33,0,0,1,2.25-2.66,6.63,6.63,0,0,1,3.56-1,8.86,8.86,0,0,1,3.18.49,5,5,0,0,1,2.06,1.39,5.12,5.12,0,0,1,1.09,2.2,12.43,12.43,0,0,1,.32,2.92v11.68H247V96.4a10.55,10.55,0,0,0-.21-2.16,4.56,4.56,0,0,0-.74-1.74,3.57,3.57,0,0,0-1.42-1.17,5.3,5.3,0,0,0-2.24-.42,5.57,5.57,0,0,0-2.37.48,5,5,0,0,0-1.76,1.3,6,6,0,0,0-1.13,2,8.21,8.21,0,0,0-.44,2.48v10.59h-2.21V89.58Z"/><path d="M1.71,135.17l4,11.06h0l3.9-11.06H11.2L6.49,147.76H4.86L0,135.17Z"/><path d="M14.46,143.6a4.6,4.6,0,0,0,.74,1.6,4.14,4.14,0,0,0,1.29,1.17,3.62,3.62,0,0,0,1.88.47A3.77,3.77,0,0,0,21,146a4.74,4.74,0,0,0,1.32-2.34h1.53a6.15,6.15,0,0,1-1.79,3.32,5.35,5.35,0,0,1-3.7,1.17,5.83,5.83,0,0,1-2.57-.53A4.66,4.66,0,0,1,14,146.14,6.21,6.21,0,0,1,13,144a9.69,9.69,0,0,1-.33-2.55A9.14,9.14,0,0,1,13,139a6.5,6.5,0,0,1,1-2.14,5,5,0,0,1,1.77-1.51,5.45,5.45,0,0,1,2.57-.57A5,5,0,0,1,22.7,137a6.64,6.64,0,0,1,1,2.27,10.25,10.25,0,0,1,.24,2.59H14.22A6.54,6.54,0,0,0,14.46,143.6Zm7.61-4.69a4.73,4.73,0,0,0-.79-1.43,4.06,4.06,0,0,0-1.25-1,3.59,3.59,0,0,0-1.66-.38,3.65,3.65,0,0,0-1.68.38,4.06,4.06,0,0,0-1.25,1,4.93,4.93,0,0,0-.81,1.44,6.91,6.91,0,0,0-.41,1.67h8.15A5.25,5.25,0,0,0,22.07,138.91Z"/><path d="M28.16,130.34v2.47H26.62v-2.47Zm0,4.83v12.59H26.62V135.17Z"/><path d="M33.23,135.17v2.18h.05a3.68,3.68,0,0,1,1.56-1.85,4.63,4.63,0,0,1,2.47-.69,6.13,6.13,0,0,1,2.2.34,3.54,3.54,0,0,1,1.43,1,3.68,3.68,0,0,1,.76,1.53,8.93,8.93,0,0,1,.22,2v8.1H40.38v-7.85a7.06,7.06,0,0,0-.15-1.5,2.94,2.94,0,0,0-.51-1.21,2.49,2.49,0,0,0-1-.81,3.7,3.7,0,0,0-1.55-.29,3.91,3.91,0,0,0-1.64.33,3.56,3.56,0,0,0-1.22.9,4,4,0,0,0-.78,1.37,5.59,5.59,0,0,0-.31,1.72v7.34H31.69V135.17Z"/><path d="M50.43,135.17v1.3H47.87V145a2.71,2.71,0,0,0,.21,1.18c.14.29.48.45,1,.48a11.66,11.66,0,0,0,1.31-.08v1.3l-.68,0-.68,0a3,3,0,0,1-2.15-.6,3,3,0,0,1-.59-2.21v-8.61H44.14v-1.3h2.19v-3.78h1.54v3.78Z"/><path d="M54.4,143.6a4.6,4.6,0,0,0,.74,1.6,4.14,4.14,0,0,0,1.29,1.17,3.62,3.62,0,0,0,1.88.47A3.77,3.77,0,0,0,61,146a4.74,4.74,0,0,0,1.32-2.34H63.8A6.15,6.15,0,0,1,62,146.94a5.35,5.35,0,0,1-3.7,1.17,5.83,5.83,0,0,1-2.57-.53A4.73,4.73,0,0,1,54,146.14,6.21,6.21,0,0,1,53,144a9.69,9.69,0,0,1-.33-2.55A9.14,9.14,0,0,1,53,139a6.5,6.5,0,0,1,1-2.14,5.11,5.11,0,0,1,1.77-1.51,5.45,5.45,0,0,1,2.57-.57A5,5,0,0,1,62.64,137a6.64,6.64,0,0,1,1,2.27,10.25,10.25,0,0,1,.24,2.59H54.17A6.52,6.52,0,0,0,54.4,143.6ZM62,138.91a4.73,4.73,0,0,0-.79-1.43,4,4,0,0,0-1.25-1,3.59,3.59,0,0,0-1.66-.38,3.65,3.65,0,0,0-1.68.38,3.91,3.91,0,0,0-1.24,1,4.74,4.74,0,0,0-.82,1.44,6.46,6.46,0,0,0-.4,1.67h8.14A5.25,5.25,0,0,0,62,138.91Z"/><path d="M76.87,139.05a1.47,1.47,0,0,1,.43,1,1.37,1.37,0,0,1-.44,1,1.43,1.43,0,0,1-1,.42,1.36,1.36,0,0,1-1-.44,1.42,1.42,0,0,1-.42-1,1.33,1.33,0,0,1,.44-1,1.39,1.39,0,0,1,1-.42A1.37,1.37,0,0,1,76.87,139.05Z"/><path d="M96,137.63a2.55,2.55,0,0,0-.72-.87,3,3,0,0,0-1-.5A5,5,0,0,0,93,136.1a5.33,5.33,0,0,0-1,.11,3.36,3.36,0,0,0-1,.37,2.07,2.07,0,0,0-.71.67,1.85,1.85,0,0,0-.27,1,1.45,1.45,0,0,0,.26.87,2.2,2.2,0,0,0,.65.6,4.43,4.43,0,0,0,.85.4c.31.11.59.19.85.26l2,.46a5.65,5.65,0,0,1,1.31.35,4.51,4.51,0,0,1,1.15.67,3.31,3.31,0,0,1,.81,1,3.47,3.47,0,0,1-.14,3.18,3.8,3.8,0,0,1-1.19,1.17,4.83,4.83,0,0,1-1.62.65,8.37,8.37,0,0,1-1.78.2,5.79,5.79,0,0,1-3.6-1.05A4.46,4.46,0,0,1,88,143.69h1.53A3,3,0,0,0,90.68,146a4.1,4.1,0,0,0,2.57.8,5.86,5.86,0,0,0,1.16-.12,3.81,3.81,0,0,0,1.11-.42,2.61,2.61,0,0,0,.84-.74,1.83,1.83,0,0,0,.33-1.11,1.7,1.7,0,0,0-.23-.94,1.9,1.9,0,0,0-.62-.64,3.85,3.85,0,0,0-.89-.42,9,9,0,0,0-1-.3l-2-.44a11.35,11.35,0,0,1-1.39-.45,4.58,4.58,0,0,1-1.11-.63,2.62,2.62,0,0,1-.75-.93,3.22,3.22,0,0,1-.26-1.35,3.08,3.08,0,0,1,.42-1.64,3.53,3.53,0,0,1,1.11-1.1,5.44,5.44,0,0,1,1.53-.61,7.38,7.38,0,0,1,1.67-.19,6.31,6.31,0,0,1,1.77.24,4.32,4.32,0,0,1,1.44.76,3.79,3.79,0,0,1,1,1.27,4.57,4.57,0,0,1,.41,1.78H96.25A2.79,2.79,0,0,0,96,137.63Z"/><path d="M102.2,143.6a4.6,4.6,0,0,0,.74,1.6,4.14,4.14,0,0,0,1.29,1.17,3.62,3.62,0,0,0,1.88.47,3.79,3.79,0,0,0,2.64-.88,4.65,4.65,0,0,0,1.31-2.34h1.54a6.15,6.15,0,0,1-1.79,3.32,5.35,5.35,0,0,1-3.7,1.17,5.83,5.83,0,0,1-2.57-.53,4.66,4.66,0,0,1-1.77-1.44,6.21,6.21,0,0,1-1-2.12,9.69,9.69,0,0,1-.33-2.55,9.14,9.14,0,0,1,.33-2.44,6.5,6.5,0,0,1,1-2.14,5,5,0,0,1,1.77-1.51,5.45,5.45,0,0,1,2.57-.57,5.14,5.14,0,0,1,2.59.61,5.24,5.24,0,0,1,1.74,1.6,6.64,6.64,0,0,1,1,2.27,10.25,10.25,0,0,1,.24,2.59H102A6.54,6.54,0,0,0,102.2,143.6Zm7.61-4.69a4.55,4.55,0,0,0-.8-1.43,3.91,3.91,0,0,0-1.24-1,3.59,3.59,0,0,0-1.66-.38,3.65,3.65,0,0,0-1.68.38,4,4,0,0,0-1.25,1,4.93,4.93,0,0,0-.81,1.44,6.91,6.91,0,0,0-.41,1.67h8.15A5.54,5.54,0,0,0,109.81,138.91Z"/><path d="M115.75,135.17v2.4h0a4.14,4.14,0,0,1,1.74-2,5.27,5.27,0,0,1,2.75-.72,5.45,5.45,0,0,1,2.5.54,5,5,0,0,1,1.77,1.45,6.19,6.19,0,0,1,1,2.12,9.73,9.73,0,0,1,0,5.1,6.28,6.28,0,0,1-1,2.12,5,5,0,0,1-1.77,1.44,5.58,5.58,0,0,1-2.5.53,5.84,5.84,0,0,1-1.37-.17,5.06,5.06,0,0,1-1.27-.52,4,4,0,0,1-1-.85,3.42,3.42,0,0,1-.7-1.2h0v7h-1.54V135.17Zm8.43,4.36a5.55,5.55,0,0,0-.73-1.72,4.06,4.06,0,0,0-1.28-1.23,3.53,3.53,0,0,0-1.88-.48,4.67,4.67,0,0,0-2.13.44,3.69,3.69,0,0,0-1.36,1.17,4.7,4.7,0,0,0-.72,1.71,9.69,9.69,0,0,0-.21,2.05,8.5,8.5,0,0,0,.23,1.94,5.16,5.16,0,0,0,.76,1.72,4,4,0,0,0,3.43,1.71,3.53,3.53,0,0,0,1.88-.48,4.18,4.18,0,0,0,1.28-1.23,5.55,5.55,0,0,0,.73-1.72,8.3,8.3,0,0,0,0-3.88Z"/><path d="M134,135.17v1.3h-2.56V145a2.71,2.71,0,0,0,.21,1.18c.13.29.48.45,1,.48a11.69,11.69,0,0,0,1.32-.08v1.3l-.68,0-.69,0a2.28,2.28,0,0,1-2.73-2.81v-8.61h-2.19v-1.3h2.19v-3.78h1.54v3.78Z"/><path d="M138.34,130.34v2.47h-1.53v-2.47Zm0,4.83v12.59h-1.53V135.17Z"/><path d="M143,143.6a4.6,4.6,0,0,0,.74,1.6,4.18,4.18,0,0,0,1.3,1.17,3.59,3.59,0,0,0,1.88.47,3.75,3.75,0,0,0,2.63-.88,4.66,4.66,0,0,0,1.32-2.34h1.54a6.22,6.22,0,0,1-1.8,3.32,5.34,5.34,0,0,1-3.69,1.17,5.85,5.85,0,0,1-2.58-.53,4.81,4.81,0,0,1-1.77-1.44,6.4,6.4,0,0,1-1-2.12,9.69,9.69,0,0,1-.33-2.55,9.14,9.14,0,0,1,.33-2.44,6.7,6.7,0,0,1,1-2.14,5.2,5.2,0,0,1,1.77-1.51,5.46,5.46,0,0,1,2.58-.57,5.1,5.1,0,0,1,2.58.61,5.18,5.18,0,0,1,1.75,1.6,6.62,6.62,0,0,1,1,2.27,9.41,9.41,0,0,1,.24,2.59h-9.68A6.52,6.52,0,0,0,143,143.6Zm7.61-4.69a4.73,4.73,0,0,0-.79-1.43,4,4,0,0,0-1.25-1,3.55,3.55,0,0,0-1.65-.38,3.66,3.66,0,0,0-1.69.38,3.91,3.91,0,0,0-1.24,1,5,5,0,0,0-.82,1.44,6.89,6.89,0,0,0-.4,1.67H151A5.55,5.55,0,0,0,150.65,138.91Z"/><path d="M156.59,135.17v2.13h.08a4.75,4.75,0,0,1,1.59-1.83,4.47,4.47,0,0,1,2.53-.66,4.28,4.28,0,0,1,2.26.61,3,3,0,0,1,1.35,1.85,3.86,3.86,0,0,1,1.66-1.85,4.7,4.7,0,0,1,2.34-.61q4.17,0,4.17,4.41v8.54H171V139.3a3.71,3.71,0,0,0-.66-2.38,2.81,2.81,0,0,0-2.32-.82,3.31,3.31,0,0,0-1.66.38,2.91,2.91,0,0,0-1.05,1,4.5,4.5,0,0,0-.55,1.45,9.43,9.43,0,0,0-.16,1.7v7.12h-1.53v-8.54A5.19,5.19,0,0,0,163,138a2.61,2.61,0,0,0-.44-1,2,2,0,0,0-.81-.67,2.82,2.82,0,0,0-1.25-.25,3.73,3.73,0,0,0-1.69.36,3.19,3.19,0,0,0-1.18,1,4.41,4.41,0,0,0-.67,1.47,7.55,7.55,0,0,0-.22,1.84v7h-1.53V135.17Z"/><path d="M177.65,130.34v7.23h0a3.56,3.56,0,0,1,.69-1.2A4.45,4.45,0,0,1,180.7,135a5.76,5.76,0,0,1,1.36-.17,5.49,5.49,0,0,1,2.51.54,5.19,5.19,0,0,1,1.77,1.45,6,6,0,0,1,1,2.12,9.46,9.46,0,0,1,0,5.1,6.09,6.09,0,0,1-1,2.12,5.16,5.16,0,0,1-1.77,1.44,5.63,5.63,0,0,1-2.51.53,5.35,5.35,0,0,1-2.74-.71,4,4,0,0,1-1.74-2h-.05v2.39h-1.42V130.34Zm8.31,9.19a5.55,5.55,0,0,0-.73-1.72,4.1,4.1,0,0,0-1.29-1.23,3.5,3.5,0,0,0-1.88-.48,4.1,4.1,0,0,0-2.06.48,4,4,0,0,0-1.36,1.23,5.16,5.16,0,0,0-.76,1.72,8.3,8.3,0,0,0,0,3.88,5.16,5.16,0,0,0,.76,1.72,3.94,3.94,0,0,0,3.42,1.71,3.5,3.5,0,0,0,1.88-.48,4.21,4.21,0,0,0,1.29-1.23,5.55,5.55,0,0,0,.73-1.72,8.3,8.3,0,0,0,0-3.88Z"/><path d="M192.14,135.17v3h.05A4.63,4.63,0,0,1,197,135v1.54a4.64,4.64,0,0,0-1.9.28,4.21,4.21,0,0,0-1.48.94,4.09,4.09,0,0,0-1,1.45,4.82,4.82,0,0,0-.35,1.84v6.71h-1.53V135.17Z"/><path d="M199.72,143.6a4.6,4.6,0,0,0,.74,1.6,4.07,4.07,0,0,0,1.3,1.17,3.58,3.58,0,0,0,1.87.47,3.76,3.76,0,0,0,2.64-.88,4.74,4.74,0,0,0,1.32-2.34h1.53a6.15,6.15,0,0,1-1.79,3.32,5.35,5.35,0,0,1-3.7,1.17,5.83,5.83,0,0,1-2.57-.53,4.81,4.81,0,0,1-1.77-1.44,6.4,6.4,0,0,1-1-2.12,9.69,9.69,0,0,1-.33-2.55,9.14,9.14,0,0,1,.33-2.44,6.7,6.7,0,0,1,1-2.14,5.2,5.2,0,0,1,1.77-1.51,5.45,5.45,0,0,1,2.57-.57A5,5,0,0,1,208,137a6.82,6.82,0,0,1,1,2.27,9.81,9.81,0,0,1,.24,2.59h-9.68A6.52,6.52,0,0,0,199.72,143.6Zm7.61-4.69a4.73,4.73,0,0,0-.79-1.43,4,4,0,0,0-1.25-1,3.56,3.56,0,0,0-1.66-.38,3.65,3.65,0,0,0-1.68.38,3.91,3.91,0,0,0-1.24,1,4.74,4.74,0,0,0-.82,1.44,6.89,6.89,0,0,0-.4,1.67h8.15A5.55,5.55,0,0,0,207.33,138.91Z"/><path d="M222.19,139.05a1.47,1.47,0,0,1,.43,1,1.37,1.37,0,0,1-.44,1,1.43,1.43,0,0,1-1,.42,1.36,1.36,0,0,1-1-.44,1.42,1.42,0,0,1-.42-1,1.33,1.33,0,0,1,.44-1,1.39,1.39,0,0,1,1-.42A1.37,1.37,0,0,1,222.19,139.05Z"/><path d="M234.33,135.17l3.95,11.06h.05l3.9-11.06h1.59l-4.71,12.59h-1.63l-4.86-12.59Z"/><path d="M247.08,143.6a4.6,4.6,0,0,0,.74,1.6,4.14,4.14,0,0,0,1.29,1.17,3.64,3.64,0,0,0,1.88.47,3.77,3.77,0,0,0,2.64-.88,4.74,4.74,0,0,0,1.32-2.34h1.53a6.15,6.15,0,0,1-1.79,3.32,5.35,5.35,0,0,1-3.7,1.17,5.83,5.83,0,0,1-2.57-.53,4.81,4.81,0,0,1-1.77-1.44,6.21,6.21,0,0,1-1-2.12,9.69,9.69,0,0,1-.33-2.55,9.14,9.14,0,0,1,.33-2.44,6.5,6.5,0,0,1,1-2.14,5.2,5.2,0,0,1,1.77-1.51,5.45,5.45,0,0,1,2.57-.57,5.14,5.14,0,0,1,2.59.61,5.06,5.06,0,0,1,1.74,1.6,6.64,6.64,0,0,1,1,2.27,10.25,10.25,0,0,1,.24,2.59h-9.68A6.52,6.52,0,0,0,247.08,143.6Zm7.61-4.69a4.73,4.73,0,0,0-.79-1.43,4,4,0,0,0-1.25-1,3.59,3.59,0,0,0-1.66-.38,3.65,3.65,0,0,0-1.68.38,3.91,3.91,0,0,0-1.24,1,4.74,4.74,0,0,0-.82,1.44,6.46,6.46,0,0,0-.4,1.67H255A5.25,5.25,0,0,0,254.69,138.91Z"/><path d="M260.78,130.34v2.47h-1.54v-2.47Zm0,4.83v12.59h-1.54V135.17Z"/><path d="M265.85,135.17v2.18h0a3.68,3.68,0,0,1,1.56-1.85,4.63,4.63,0,0,1,2.47-.69,6.19,6.19,0,0,1,2.21.34,3.57,3.57,0,0,1,1.42,1,3.68,3.68,0,0,1,.76,1.53,8.39,8.39,0,0,1,.22,2v8.1H273v-7.85a7.06,7.06,0,0,0-.15-1.5,2.94,2.94,0,0,0-.51-1.21,2.49,2.49,0,0,0-1-.81,3.68,3.68,0,0,0-1.54-.29,3.92,3.92,0,0,0-1.65.33,3.56,3.56,0,0,0-1.22.9,4,4,0,0,0-.78,1.37,5.59,5.59,0,0,0-.31,1.72v7.34h-1.54V135.17Z"/><path d="M283.05,135.17v1.3h-2.56V145a2.71,2.71,0,0,0,.21,1.18c.14.29.48.45,1,.48a11.51,11.51,0,0,0,1.31-.08v1.3l-.68,0c-.23,0-.45,0-.68,0a3,3,0,0,1-2.15-.6,3,3,0,0,1-.58-2.21v-8.61h-2.2v-1.3H279v-3.78h1.53v3.78Z"/><path d="M287,143.6a4.6,4.6,0,0,0,.74,1.6,4.18,4.18,0,0,0,1.3,1.17,3.59,3.59,0,0,0,1.88.47,3.75,3.75,0,0,0,2.63-.88,4.74,4.74,0,0,0,1.32-2.34h1.54a6.22,6.22,0,0,1-1.8,3.32,5.34,5.34,0,0,1-3.69,1.17,5.85,5.85,0,0,1-2.58-.53,4.81,4.81,0,0,1-1.77-1.44,6.4,6.4,0,0,1-1-2.12,9.69,9.69,0,0,1-.33-2.55,9.14,9.14,0,0,1,.33-2.44,6.7,6.7,0,0,1,1-2.14,5.2,5.2,0,0,1,1.77-1.51,5.46,5.46,0,0,1,2.58-.57,5.1,5.1,0,0,1,2.58.61,5.18,5.18,0,0,1,1.75,1.6,6.82,6.82,0,0,1,1,2.27,9.41,9.41,0,0,1,.24,2.59h-9.68A6.52,6.52,0,0,0,287,143.6Zm7.61-4.69a4.73,4.73,0,0,0-.79-1.43,4,4,0,0,0-1.25-1,3.55,3.55,0,0,0-1.65-.38,3.66,3.66,0,0,0-1.69.38,3.91,3.91,0,0,0-1.24,1,5,5,0,0,0-.82,1.44,6.89,6.89,0,0,0-.4,1.67h8.15A5.55,5.55,0,0,0,294.63,138.91Z"/></g></g></svg>