<?xml version="1.0" encoding="utf-8"?>
<!-- Generator: Adobe Illustrator 24.0.3, SVG Export Plug-In . SVG Version: 6.00 Build 0)  -->
<svg version="1.1" id="Layer_1" xmlns="http://www.w3.org/2000/svg" xmlns:xlink="http://www.w3.org/1999/xlink" x="0px" y="0px"
	 viewBox="0 0 338.2 301.2" style="enable-background:new 0 0 338.2 301.2;" xml:space="preserve">
<style type="text/css">
	.st0{fill:#231F20;}
</style>
<g class="incomplete-a">
	<polygon class="st0" points="85.3,273 139.6,273 155.2,225.6 102.2,225.6 	"/>
	<path class="st0" d="M232.7,24.6H174L113.1,195H293L232.7,24.6z M202.8,81.4l31.4,97.8h-63.6L202.8,81.4z"/>
	<polygon class="st0" points="264.3,273 320.6,273 303.8,225.6 249.2,225.6 	"/>
</g>
<g class="dot">
	<g>
		<path class="st0" d="M46.1,236c-14.2,0-25.7-11.5-25.7-25.7c0-14.2,11.5-25.7,25.7-25.7c14.2,0,25.7,11.5,25.7,25.7
			C71.9,224.5,60.3,236,46.1,236z"/>
	</g>
</g>
<g class="complete-a">
	<path class="st0" d="M173.9,24.6h58.6l87.7,248h-56.2l-16.4-51h-91.3l-16.8,51H85.4L173.9,24.6z M170.5,178.9H234l-31.3-97.6
		L170.5,178.9z"/>
</g>
</svg>
